<?xml version="1.0" encoding="utf-8"?>
<svg id="bsides-arrow" viewBox="0 0 336 144" xmlns="http://www.w3.org/2000/svg" version="1.1">
<!--
	 #bsideskyiv
	 created by Constantine
	(you may contact andrey.loginov via skype for details :)

	 21 APR 2018, KIEV, UKRAINE
-->
<path d="M194.199,86.695c-0.172,2.656-1.078,5.921-3.896,8.024c-1.91,1.428-4.355,2.393-7.279,2.393h-4.205l3.336-17.75h3.832c2.193,0,3.938,0.446,5.262,1.209C193.684,81.978,194.379,84.48,194.199,86.695z M82.981,66.573c3.383,0,5.125-1.659,5.203-3.769c0-1.47-0.937-2.7-4.375-2.7h-7.292L75.3,66.572L82.981,66.573L82.981,66.573z M89.179,49.71c0-1.607-0.887-2.596-4.059-2.596h-6.162L77.8,53.283h6.399C87.506,53.283,89.179,51.617,89.179,49.71z M271.086,132.715l2.684-14.283H34.792L52.231,25.57h238.958l2.701-14.285L324.914,72L271.086,132.715z M64.352,74.399l18.41-0.002c1.104,0,2.126-0.082,3.1-0.207c0.121-0.143,0.23-0.288,0.358-0.427c1.664-1.819,5.277-3.784,9.133-4.298c1.677-2.042,2.459-4.477,2.426-6.833c-0.047-3.344-2.031-5.422-5.55-6.592c5.487-2.127,7.066-6.357,7.066-9.58c0-4-2.923-7.172-10.704-7.172H70.952L64.352,74.399z M96.179,77.65c-2.828,0-5.121,2.293-5.121,5.121s2.293,5.121,5.121,5.121c2.829,0,5.122-2.293,5.122-5.121S99.008,77.65,96.179,77.65z M120.594,85.9c0.234-1.373,0.364-2.781,0.364-4.221c0-2.673-0.427-5.244-1.206-7.656c-0.77-0.489-1.492-1.069-2.154-1.745c-2.096-2.139-3.24-4.87-3.464-7.706c-0.306-3.869,1.11-7.934,4.207-10.965c5.362-5.254,13.728-5.415,18.683-0.357c2.926,2.987,4.006,7.125,3.297,11.095l12.185,2.113c0.241-1.393,0.376-2.824,0.376-4.286c0-13.729-11.13-24.858-24.859-24.858c-11.313,0-20.852,7.563-23.859,17.904c-0.002-0.001-0.004-0.003-0.006-0.004c-0.789,2.354-4.097,14.441-4.097,14.441c1.556,0.505,3.035,1.313,4.349,2.438c0.598,0.512,1.132,1.063,1.611,1.653c0.702,0.864,1.278,1.797,1.724,2.787c2.046,4.536,1.391,10.103-2.133,14.223c-4.817,5.631-13.165,6.372-18.646,1.684c-4.253-3.639-5.519-9.669-3.626-14.619h-11.82c-0.18,1.019-0.278,2.551-0.278,3.807c0,13.729,11.13,24.911,24.858,24.911C108.389,106.538,118.588,97.618,120.594,85.9z M127.511,57.847c-2.828,0-5.121,2.293-5.121,5.121s2.293,5.121,5.121,5.121s5.121-2.293,5.121-5.121S130.339,57.847,127.511,57.847z M133.436,80.806c1.061-4.832,9.508-1.981,12.549,0.367c2.063-2.254,3.742-4.889,4.924-7.799c-1.989-1.367-5.739-3.201-11.526-3.186c-0.492,0-0.954,0.033-1.421,0.061c-0.362,0.51-0.749,1.009-1.188,1.479c-2.912,3.137-7.045,4.651-10.927,4.496c-1.735,2.396-2.522,5.148-2.522,7.564c0,3.792,2.994,6.459,8.479,7.899c4.87,1.33,8.123,1.789,8.123,3.643c0,3.271-4.814,2.924-4.814,2.924c-6.375-0.069-10.213-4.184-10.213-4.184l-1.832-1.774c-1.117,4.695-4.762,8.203-4.762,8.203c5.973,6.331,15.41,5.786,15.41,5.786c16.563-0.498,16.311-13.414,16.311-13.414c0.23-6.729-8.901-8.357-8.901-8.357C133.361,82.747,133.341,82.039,133.436,80.806z M161.143,105.688l6.561-34.902h-9.729l-6.555,34.902H161.143z M204.352,84.992c0-6.531-3.074-12.14-11.971-13.808c-1.504-0.26-3.145-0.398-4.926-0.398h-13.371l-6.553,34.902h12.934c2.207,0,4.287-0.213,6.229-0.605C198.59,102.602,204.059,93.306,204.352,84.992z M215.512,97.461l1.035-5.534h16.752l1.436-7.628H217.98l0.994-5.285h18.496l1.555-8.229h-28.078l-6.563,34.903h28.32l1.547-8.228H215.512z M252.438,80.805c1.133-5.161,10.695-1.558,13.092,0.839l6.119-6.818c0,0-4.059-4.661-13.268-4.637c-11.582,0-16.057,7.789-16.057,13.601c0,3.792,2.994,6.459,8.479,7.899c4.869,1.33,8.123,1.789,8.123,3.643c0,3.271-4.814,2.924-4.814,2.924c-6.375-0.069-10.213-4.184-10.211-4.185l-6.596,6.429c5.973,6.33,15.41,5.786,15.41,5.786c16.564-0.497,16.313-13.414,16.313-13.414c0.23-6.729-8.902-8.357-8.902-8.357C252.361,82.747,252.34,82.038,252.438,80.805z" fill="#1E71B8"/>
</svg>
