<?xml version="1.0" encoding="utf-8"?>
<svg id="bsized" viewBox="0 0 216 80" xmlns="http://www.w3.org/2000/svg" version="1.1">
<!--
	 #bsideskyiv
	 created by Constantine
	(you may contact andrey.loginov via skype for details :)

	 21 APR 2018, KIEV, UKRAINE
	 BSIZED - for cute girls :)
-->
<g>
	<path d="M213.915,52.992c-0.293,8.313-5.762,17.609-17.659,20.091c-1.941,0.392-4.02,0.605-6.228,0.605h-12.934l6.553-34.902h13.371c1.781,0,3.422,0.139,4.927,0.398C210.841,40.852,213.915,46.461,213.915,52.992z M200.811,48.571c-1.323-0.763-3.067-1.209-5.261-1.209h-3.833l-3.336,17.75h4.205c2.924,0,5.37-0.965,7.281-2.392c2.817-2.104,3.724-5.369,3.896-8.025C203.941,52.48,203.247,49.977,200.811,48.571z M142.596,73.688h28.32l1.546-8.227h-18.74l1.035-5.534h16.752l1.435-7.628H156.19l0.994-5.286h18.496l1.554-8.228h-28.078L142.596,73.688z M141.212,47.014l1.554-8.228h-28.078l-1.555,8.228l14.777,0l-18.231,18.448l-1.552,8.227h28.32l1.546-8.227h-15.078L141.212,47.014z M92.017,73.688h9.723l6.56-34.902h-9.728L92.017,73.688z M26.817,41.763c-0.128,0.139-0.237,0.285-0.358,0.427c-0.974,0.125-1.996,0.207-3.1,0.207l-18.41,0.002l6.6-35.11h17.639c7.781,0,10.704,3.172,10.704,7.172c0,3.222-1.579,7.453-7.066,9.58c3.519,1.17,5.503,3.248,5.55,6.592c0.033,2.356-0.749,4.791-2.426,6.833C32.094,37.979,28.481,39.944,26.817,41.763z M18.397,21.283h6.399c3.307,0,4.98-1.666,4.98-3.573c0-1.608-0.887-2.596-4.059-2.596h-6.162L18.397,21.283z M23.578,34.573c3.383,0,5.125-1.659,5.203-3.769c0-1.469-0.937-2.7-4.375-2.7h-7.292l-1.217,6.468H23.578z M79.979,38.188c-0.492,0-0.954,0.033-1.421,0.061c-0.362,0.51-0.749,1.009-1.187,1.479c-2.913,3.137-7.045,4.652-10.927,4.496c-1.735,2.397-2.523,5.149-2.523,7.565c0,3.792,2.995,6.459,8.479,7.899c4.87,1.33,8.123,1.789,8.123,3.643c0,3.271-4.814,2.924-4.814,2.924c-6.376-0.07-10.213-4.184-10.213-4.184l-1.833-1.774c-1.116,4.695-4.761,8.203-4.761,8.203c5.973,6.331,15.41,5.786,15.41,5.786c16.563-0.498,16.311-13.414,16.311-13.414c0.23-6.729-8.902-8.358-8.902-8.358c-7.763-1.767-7.783-2.475-7.688-3.709c1.061-4.832,9.508-1.981,12.549,0.368c2.063-2.254,3.741-4.889,4.923-7.799C89.516,40.007,85.766,38.173,79.979,38.188z" fill="#d032c1"/>
	<path d="M73.229,30.968c0,2.828-2.293,5.121-5.121,5.121s-5.121-2.293-5.121-5.121c0-2.829,2.293-5.122,5.121-5.122S73.229,28.139,73.229,30.968z M36.776,55.892c2.829,0,5.122-2.293,5.122-5.121s-2.293-5.121-5.122-5.121c-2.828,0-5.121,2.293-5.121,5.121S33.948,55.892,36.776,55.892z M68.618,5.313c-11.313,0-20.851,7.563-23.858,17.905c-0.002-0.001-0.004-0.003-0.006-0.004c-0.789,2.354-4.097,14.441-4.097,14.441c1.556,0.505,3.035,1.314,4.349,2.438c0.598,0.511,1.132,1.063,1.611,1.653c0.702,0.864,1.278,1.797,1.724,2.787c2.046,4.536,1.391,10.103-2.133,14.223c-4.817,5.631-13.165,6.372-18.646,1.683c-4.253-3.638-5.519-9.669-3.626-14.619H12.116c-0.18,1.019-0.278,2.551-0.278,3.807c0,13.729,11.13,24.911,24.858,24.911c12.29,0,22.489-8.92,24.495-20.638c0.234-1.373,0.364-2.781,0.364-4.221c0-2.672-0.426-5.244-1.206-7.656c-0.769-0.489-1.492-1.069-2.154-1.745c-2.096-2.139-3.241-4.87-3.464-7.706c-0.305-3.869,1.111-7.934,4.207-10.965c5.363-5.254,13.728-5.415,18.683-0.357c2.925,2.987,4.006,7.125,3.297,11.095l12.184,2.113c0.242-1.393,0.376-2.824,0.376-4.286C93.478,16.442,82.348,5.313,68.618,5.313z" fill="#b7149f"/>
</g>
</svg>
